name processed_emg_signals
nRows=37
nColumns=7
 
endheader
time	LGLTMED	LRF	LADDLONG	LBF	LTA	LGM
3.607800000000003	0.002607135511602	0.0075960585150389	0.0044106182113072	0.0040041300016084	0.7441675966909699	0.0015538382383585
3.617800000000003	0.0025891281753263	0.0075677194237053	0.0044240910092424	0.0040051591752438	0.7355180819346728	0.0015392925327256
3.6278000000000032	0.0025711362668226	0.0075399795368327	0.0044381140844262	0.0040078865889233	0.7268576788367718	0.0015247174659667
3.637800000000003	0.0025531924642108	0.0075128653639361	0.0044526869318051	0.0040123490253883	0.7181957579700627	0.0015101287330153
3.647800000000003	0.0025353300436449	0.0074864018344501	0.004467808124345	0.0040185804739687	0.7095415819657322	0.0014955418410759
3.657800000000003	0.0025175828077794	0.0074606122497434	0.00448347529288	0.0040266120263191	0.7009042895319876	0.0014809720824749
3.6678000000000033	0.0024999850123776	0.0074355182385509	0.0044996851075334	0.0040364717776758	0.6922928797469279	0.0014664345079797
3.677800000000003	0.0024825712912759	0.0074111397159815	0.0045164332607769	0.0040481847338337	0.6837161966667769	0.0014519439006624
3.687800000000003	0.0024653765799176	0.0073874948462498	0.0045337144522056	0.0040617727240244	0.6751829142890388	0.0014375147503789
3.697800000000003	0.0024484360376664	0.0073646000092769	0.0045515223751153	0.0040772543198703	0.6667015219081454	0.001423161228933
3.7078000000000033	0.0024317849691041	0.0073424697713	0.0045698497049658	0.0040946447605725	0.6582803098991777	0.0014088971659894
3.717800000000003	0.0024154587445132	0.0073211168596224	0.0045886880898173	0.0041139558844761	0.6499273559633918	0.001394736025795
3.727800000000003	0.0023994927197399	0.0073005521416301	0.0046080281428191	0.0041351960671483	0.6416505118674308	0.001380690884768
3.737800000000003	0.0023839221556339	0.0072807846081843	0.0046278594368305	0.0041583701660922	0.6334573907062464	0.0013667744100061
3.7478000000000034	0.0023687821372572	0.0072618213614989	0.0046481705012482	0.0041834794722176	0.6253553547178713	0.001352998838766
3.757800000000003	0.0023541074930528	0.007243667607597	0.0046689488211119	0.0042105216681842	0.6173515036763685	0.0013393759589601
3.767800000000003	0.0023399327141597	0.0072263266534376	0.0046901808385456	0.0042394907937268	0.6094526638875486	0.0013259170907152
3.777800000000003	0.0023262918740562	0.0072097999087932	0.004711851956588	0.004270377218066	0.6016653778104281	0.0013126330690339
3.7878000000000034	0.0023132185487076	0.0071940868929486	0.0047339465454477	0.0043031676194969	0.593995894325849	0.0012995342275978
3.797800000000003	0.0023007457373895	0.0071791852462778	0.0047564479512118	0.0043378449722395	0.5864501596721469	0.0012866303837509
3.807800000000003	0.0022889057843543	0.0071650907467378	0.0047793385070222	0.0043743885406245	0.5790338090662058	0.0012739308246963
3.817800000000003	0.0022777303015036	0.0071517973312952	0.0048025995467227	0.0044127738806761	0.5717521590266315	0.001261444294939
3.8278000000000034	0.0022672500922278	0.0071392971222791	0.0048262114209672	0.0044529728491472	0.5646102004140806	0.0012491789850034
3.837800000000003	0.0022574950765711	0.0071275804586294	0.0048501535157786	0.0044949536200499	0.5576125922020034	0.0012371425214519
3.847800000000003	0.0022484942178776	0.0071166359319896	0.00487440427354	0.0045386807087105	0.5507636559892033	0.001225341958225
3.8578000000000032	0.0022402754510686	0.0071064504275797	0.0048989412164068	0.0045841150033707	0.5440673712637436	0.0012137837693232
3.8678000000000035	0.0022328656126972	0.0070970091697666	0.0049237409721215	0.0046312138043367	0.5375273714258558	0.0012024738428443
3.8778000000000032	0.002226290372921	0.0070882957722333	0.0049487793022083	0.004679930870667	0.5311469405756224	0.0011914174763862
3.887800000000003	0.0022205741695293	0.0070802922926254	0.0049740311325126	0.0047302164743773	0.5249290110693452	0.0011806193738255
3.8978000000000033	0.0022157401441565	0.0070729792915333	0.0049994705860383	0.0047820174621226	0.5188761618467683	0.0011700836434738
3.9078000000000035	0.0022118100808111	0.0070663358956471	0.0050250710180234	0.0048352773243103	0.5129906175297431	0.0011598137976153
3.9178000000000033	0.0022088043468458	0.0070603398649007	0.0050508050531785	0.004889936271578	0.5072742482914455	0.0011498127534218
3.927800000000003	0.0022067418364921	0.0070549676634	0.0050766446250021	0.0049459313185574	0.5017285704937827	0.0011400828352405
3.9378000000000033	0.0022056399170794	0.0070501945339119	0.0051025610170734	0.0050031963748294	0.4963547480891033	0.0011306257782469
3.9478000000000035	0.0022055143780492	0.0070459945756724	0.0051285249062119	0.0050616623429585	0.4911535947807725	0.0011214427334492
3.9578000000000033	0.0022063793828752	0.0070423408252587	0.0051545064073776	0.0051212572234803	0.4861255769356244	0.0011125342740332
3.967800000000003	0.0022082474239855	0.0070392053402533	0.0051804751201749	0.0051819062267043	0.4812708172396919	0.0011039004030279
